<svg xmlns="http://www.w3.org/2000/svg" viewBox="0 0 16 16" fill-rule="nonzero" stroke-linejoin="round" stroke-miterlimit="2"><path d="M.563.563A.56.56 0 0 0 0 1.125c0 .311.252.563.563.563H12.75c1.036 0 1.875.839 1.875 1.875s-.839 1.875-1.875 1.875H9.421l.539-.54c.22-.22.22-.576 0-.796a.56.56 0 0 0-.795 0l-1.5 1.5c-.22.22-.22.576 0 .796l1.5 1.5c.219.219.576.219.795 0s.22-.576 0-.796l-.539-.539h3.329a3 3 0 1 0 0-6H.562zM0 6a.56.56 0 0 1 .563-.562h4.875A.56.56 0 0 1 6 6c0 .311-.252.563-.563.563H.562C.252 6.563 0 6.311 0 6zm8.587 6.755l2.136 2.135c.094.095.147.223.147.356 0 .277-.227.504-.503.504a.5.5 0 0 1-.356-.148l-2.136-2.136-2.136 2.136a.5.5 0 0 1-.356.148c-.276 0-.503-.227-.503-.504 0-.133.053-.261.147-.356l2.136-2.135-2.136-2.136a.51.51 0 0 1-.141-.35c0-.276.227-.504.503-.504.131 0 .256.051.35.142l2.136 2.136 2.136-2.136a.5.5 0 0 1 .356-.148c.276 0 .503.227.503.504 0 .133-.053.261-.147.356l-2.136 2.136z"/></svg>